<svg aria-hidden="true" style="position: absolute; width: 0; height: 0; overflow: hidden;" version="1.1" xmlns="http://www.w3.org/2000/svg" xmlns:xlink="http://www.w3.org/1999/xlink">
<defs>
<symbol id="icon-twitter" viewBox="0 0 32 32">
<path d="M15.538 9.448l0.070 1.212-1.156-0.148c-4.212-0.572-7.886-2.498-11.006-5.734l-1.526-1.608-0.394 1.186c-0.832 2.646-0.3 5.44 1.434 7.316 0.924 1.040 0.716 1.188-0.88 0.57-0.554-0.2-1.040-0.346-1.086-0.272-0.16 0.172 0.394 2.42 0.832 3.312 0.6 1.236 1.828 2.446 3.168 3.164l1.134 0.568-1.34 0.024c-1.296 0-1.342 0.024-1.204 0.544 0.462 1.606 2.288 3.312 4.324 4.054l1.434 0.52-1.25 0.79c-1.766 1.096-3.897 1.769-6.18 1.828l-0.016 0c-1.040 0.024-1.896 0.124-1.896 0.198 0 0.248 2.82 1.632 4.462 2.174 4.926 1.608 10.776 0.916 15.168-1.828 3.12-1.952 6.244-5.834 7.7-9.59 0.786-2 1.572-5.66 1.572-7.414 0-1.138 0.070-1.286 1.364-2.646 0.764-0.79 1.48-1.656 1.62-1.902 0.23-0.47 0.208-0.47-0.972-0.050-1.966 0.74-2.244 0.642-1.272-0.47 0.716-0.79 1.572-2.224 1.572-2.644 0-0.074-0.346 0.050-0.74 0.272-0.416 0.248-1.34 0.618-2.034 0.84l-1.248 0.42-1.134-0.816c-0.624-0.444-1.502-0.94-1.966-1.086-1.18-0.346-2.98-0.298-4.046 0.1-2.67 1.056-4.524 3.615-4.524 6.607 0 0.179 0.007 0.355 0.020 0.531l-0.001-0.023z"></path>
</symbol>
<symbol id="icon-youtube" viewBox="0 0 32 32">
<path d="M28.502 2.836c1.378 0.46 2.46 1.816 2.83 3.536 0.668 3.12 0.668 9.628 0.668 9.628s0 6.508-0.668 9.628c-0.368 1.72-1.452 3.076-2.83 3.536-2.496 0.836-12.502 0.836-12.502 0.836s-10.006 0-12.502-0.836c-1.378-0.46-2.46-1.816-2.83-3.536-0.668-3.12-0.668-9.628-0.668-9.628s0-6.508 0.668-9.628c0.368-1.72 1.452-3.076 2.83-3.536 2.496-0.836 12.502-0.836 12.502-0.836s10.006 0 12.502 0.836zM13 10.522v12.174l8-6.088-8-6.086z"></path>
</symbol>
<symbol id="icon-instagram" viewBox="0 0 32 32">
<path d="M16 0c-4.342 0-4.888 0.020-6.594 0.096-1.706 0.080-2.868 0.348-3.886 0.744-1.109 0.424-2.055 1.052-2.833 1.845l-0.001 0.001c-0.793 0.78-1.421 1.725-1.828 2.78l-0.018 0.054c-0.396 1.016-0.666 2.18-0.744 3.88-0.076 1.71-0.096 2.254-0.096 6.6s0.020 4.888 0.096 6.596c0.080 1.702 0.348 2.866 0.744 3.882 0.41 1.054 0.956 1.946 1.846 2.836 0.888 0.89 1.78 1.438 2.832 1.846 1.020 0.396 2.18 0.666 3.884 0.744 1.708 0.076 2.252 0.096 6.598 0.096 4.344 0 4.888-0.020 6.596-0.096 1.702-0.080 2.866-0.348 3.884-0.744 1.108-0.424 2.053-1.052 2.831-1.845l0.001-0.001c0.89-0.89 1.438-1.782 1.848-2.834 0.394-1.020 0.664-2.18 0.742-3.884 0.078-1.706 0.098-2.25 0.098-6.596s-0.020-4.89-0.098-6.598c-0.080-1.702-0.35-2.866-0.742-3.882-0.425-1.109-1.054-2.054-1.847-2.833l-0.001-0.001c-0.779-0.794-1.723-1.422-2.779-1.828l-0.053-0.018c-1.020-0.396-2.184-0.666-3.888-0.744-1.704-0.076-2.248-0.096-6.596-0.096h0.006zM14.566 2.884h1.436c4.272 0 4.778 0.014 6.464 0.092 1.56 0.070 2.408 0.332 2.972 0.55 0.746 0.29 1.28 0.636 1.838 1.196 0.56 0.56 0.906 1.094 1.198 1.84 0.22 0.564 0.48 1.41 0.55 2.97 0.076 1.688 0.094 2.194 0.094 6.464s-0.016 4.776-0.094 6.464c-0.072 1.56-0.332 2.406-0.55 2.97-0.29 0.746-0.638 1.278-1.198 1.838s-1.092 0.906-1.84 1.196c-0.562 0.22-1.41 0.48-2.97 0.552-1.686 0.076-2.192 0.094-6.464 0.094-4.274 0-4.78-0.018-6.466-0.094-1.56-0.072-2.406-0.332-2.972-0.552-0.721-0.27-1.336-0.678-1.839-1.195l-0.001-0.001c-0.518-0.504-0.925-1.119-1.185-1.806l-0.011-0.034c-0.22-0.564-0.48-1.41-0.552-2.97-0.076-1.686-0.092-2.192-0.092-6.466 0-4.272 0.016-4.776 0.092-6.464 0.072-1.56 0.332-2.406 0.552-2.97 0.29-0.746 0.636-1.28 1.196-1.84s1.094-0.906 1.84-1.198c0.564-0.22 1.412-0.48 2.972-0.55 1.476-0.068 2.048-0.088 5.030-0.090v0.004zM24.542 5.54c-1.060 0-1.92 0.86-1.92 1.92s0.86 1.92 1.92 1.92v0c1.060 0 1.92-0.86 1.92-1.92s-0.86-1.92-1.92-1.92v0zM16.002 7.784c-0.038-0.001-0.083-0.001-0.128-0.001-4.539 0-8.218 3.679-8.218 8.218s3.679 8.218 8.218 8.218c0.045 0 0.090-0 0.135-0.001l-0.007 0c4.483-0.072 8.090-3.723 8.090-8.217s-3.607-8.145-8.083-8.217l-0.007-0zM16.002 10.666c2.946 0 5.334 2.388 5.334 5.334s-2.388 5.334-5.334 5.334v0c-2.946 0-5.334-2.388-5.334-5.334s2.388-5.334 5.334-5.334v0z"></path>
</symbol>
<symbol id="icon-dribbble" viewBox="0 0 32 32">
<path d="M32 16c-0.001 2.249-0.464 4.39-1.3 6.332l0.040-0.104c-1.257 2.907-3.246 5.296-5.739 7.004l-0.055 0.036c-0.781 0.533-1.675 1.026-2.615 1.432l-0.105 0.040c-1.838 0.795-3.979 1.258-6.228 1.258s-4.39-0.463-6.332-1.298l0.104 0.040c-1.044-0.447-1.937-0.94-2.774-1.51l0.056 0.036c-2.547-1.744-4.536-4.134-5.754-6.936l-0.040-0.104c-0.798-1.836-1.263-3.975-1.263-6.223 0-1.141 0.12-2.254 0.347-3.328l-0.019 0.104c0.454-2.172 1.292-4.092 2.445-5.779l-0.035 0.055c1.17-1.714 2.605-3.149 4.263-4.284l0.055-0.036c1.632-1.121 3.553-1.96 5.623-2.394l0.103-0.018c0.967-0.206 2.077-0.324 3.215-0.324 2.251 0 4.394 0.462 6.34 1.296l-0.105-0.040c2.908 1.254 5.297 3.246 7 5.743l0.036 0.055c1.119 1.632 1.956 3.553 2.39 5.623l0.018 0.103c0.22 1.050 0.328 2.134 0.328 3.22zM10.17 3.64c-3.824 1.837-6.62 5.291-7.524 9.452l-0.016 0.090c0.36 0.004 6.052 0.076 12.612-1.668-1.744-3.064-3.421-5.635-5.232-8.101l0.161 0.229zM16.374 13.62c-7.034 2.104-13.786 1.954-14.028 1.944-0.004 0.146-0.010 0.29-0.010 0.436 0 3.51 1.324 6.71 3.5 9.13-0.004-0.008 3.734-6.64 11.108-9.026 0.18-0.060 0.36-0.112 0.54-0.164-0.469-1.064-0.84-1.826-1.231-2.575l0.121 0.255zM25.024 5.746c-2.386-2.116-5.544-3.408-9.004-3.408-0.007 0-0.014 0-0.021 0h0.001c-0.001 0-0.002 0-0.003 0-1.142 0-2.251 0.139-3.312 0.402l0.094-0.020c0.204 0.276 2.77 3.68 5.108 7.97 5.156-1.932 7.1-4.894 7.136-4.944zM18.416 18.206l-0.092 0.028c-8.060 2.81-10.694 8.474-10.722 8.536 2.291 1.805 5.219 2.895 8.401 2.895 1.926 0 3.758-0.399 5.419-1.119l-0.088 0.034c-0.202-1.194-0.996-5.38-2.92-10.376zM23.636 27.332c3.069-2.090 5.222-5.33 5.843-9.087l0.011-0.079c-0.28-0.092-4.104-1.3-8.514-0.594 1.792 4.924 2.52 8.936 2.66 9.76zM18.94 12.726c0.319 0.618 0.723 1.503 1.097 2.404l0.105 0.286c4.694-0.592 9.32 0.402 9.516 0.444-0.027-3.257-1.195-6.237-3.124-8.563l0.018 0.022c-0.026 0.036-2.218 3.204-7.612 5.406z"></path>
</symbol>
<symbol id="icon-stacks" viewBox="0 0 32 32">
<path d="M16 2.667c-7.36 0-13.334 5.974-13.334 13.334s5.973 13.333 13.334 13.333c7.36 0 13.333-5.973 13.333-13.333s-5.973-13.334-13.333-13.334zM22 19h-4.066l2.653 3.76c0.32 0.453 0.213 1.080-0.24 1.387-0.173 0.12-0.373 0.186-0.573 0.186-0.004 0-0.008 0-0.012 0-0.332 0-0.625-0.168-0.799-0.423l-0.002-0.003-3.067-4.346-3.066 4.346c-0.182 0.258-0.478 0.425-0.813 0.427h-0c-0.2 0-0.4-0.053-0.573-0.186-0.454-0.32-0.56-0.947-0.24-1.387l2.653-3.76h-3.826c-0.546 0-1-0.453-1-1s0.454-1 1-1h12c0.547 0 1 0.453 1 1s-0.48 1-1.026 1zM22 15h-12c-0.546 0-1-0.454-1-1s0.454-1 1-1h3.826l-2.653-3.76c-0.32-0.454-0.213-1.080 0.24-1.387 0.453-0.32 1.080-0.213 1.386 0.24l3.066 4.347 3.067-4.347c0.32-0.453 0.947-0.56 1.387-0.24 0.453 0.32 0.56 0.947 0.24 1.387l-2.654 3.76h4.067c0.547 0 1 0.453 1 1s-0.427 1-0.973 1z"></path>
</symbol>
<symbol id="icon-smart-car" viewBox="0 0 32 32">
<path d="M24.947 12.653c-0.133 0-0.267-0.027-0.4-0.080-0.357-0.162-0.6-0.515-0.6-0.925 0-0.143 0.029-0.278 0.083-0.401l-0.003 0.007c0.253-0.573 0.107-1.413-0.36-2.107-0.467-0.707-1.173-1.187-1.813-1.147-0.587 0-1-0.44-1.013-0.987 0-0.56 0.44-1 0.987-1.013 1.373-0.027 2.667 0.76 3.507 2.027 0.853 1.28 1.053 2.813 0.533 4.013-0.16 0.387-0.533 0.613-0.92 0.613z"></path>
<path d="M29.093 13.973c-0.093 0-0.173-0.013-0.267-0.040-0.424-0.119-0.73-0.503-0.73-0.958 0-0.096 0.014-0.188 0.039-0.276l-0.002 0.007c0.507-1.813 0.080-3.973-1.133-5.787s-3.053-3.027-4.933-3.253c-0.495-0.061-0.874-0.479-0.874-0.985 0-0.043 0.003-0.085 0.008-0.127l-0 0.005c0.067-0.547 0.573-0.947 1.107-0.867 2.44 0.293 4.813 1.84 6.347 4.133s2.053 5.067 1.4 7.44c-0.12 0.413-0.52 0.707-0.96 0.707zM22.827 15.707c0 0.4-0.333 0.733-0.733 0.733h-17.52c-0.4 0-0.733-0.333-0.733-0.733s0.333-0.733 0.733-0.733h0.987l0.373-1.76c0.347-1.707 1.080-3.267 3.987-3.267h6.84c2.907 0 3.627 1.573 3.987 3.267l0.373 1.76h0.987c0.387 0 0.72 0.333 0.72 0.733zM23.24 21.213c-0.147-1.6-0.573-3.32-3.693-3.32h-12.427c-3.12 0-3.547 1.72-3.693 3.32l-0.547 5.933c-0.067 0.733 0.173 1.48 0.68 2.040 0.52 0.56 1.24 0.88 2.027 0.88h1.827c1.573 0 1.88-0.907 2.080-1.493l0.2-0.587c0.227-0.667 0.28-0.84 1.16-0.84h4.987c0.88 0 0.907 0.093 1.16 0.84l0.2 0.587c0.2 0.6 0.493 1.493 2.080 1.493h1.827c0.773 0 1.507-0.32 2.027-0.88 0.507-0.56 0.747-1.293 0.68-2.040l-0.573-5.933zM10.413 23.24h-2.92c-0.4 0-0.733-0.333-0.733-0.733s0.333-0.733 0.733-0.733h2.92c0.4 0 0.733 0.333 0.733 0.733s-0.333 0.733-0.733 0.733zM19.173 23.24h-2.92c-0.4 0-0.733-0.333-0.733-0.733s0.333-0.733 0.733-0.733h2.92c0.4 0 0.733 0.333 0.733 0.733s-0.333 0.733-0.733 0.733z"></path>
</symbol>
<symbol id="icon-ship" viewBox="0 0 32 32">
<path d="M28.84 19.547l-0.547 2.48c-0.947 4.267-4.293 7.307-9.12 7.307h-6.347c-4.827 0-8.173-3.040-9.12-7.307l-0.547-2.48c-0.267-1.213 0.453-2.587 1.613-3.053l9.24-3.707c0.64-0.253 1.32-0.387 1.987-0.387s1.347 0.133 1.987 0.387l9.24 3.707c1.16 0.467 1.88 1.84 1.613 3.053z"></path>
<path d="M25.333 10.667v1.92c0 0.467-0.48 0.8-0.92 0.613l-5.693-2.28c-0.803-0.322-1.735-0.508-2.71-0.508-0.988 0-1.931 0.192-2.794 0.54l0.050-0.018-5.68 2.28c-0.075 0.032-0.163 0.051-0.255 0.051-0.367 0-0.665-0.297-0.665-0.664v-1.933c0-2.2 1.8-4 4-4h10.667c2.2 0 4 1.8 4 4zM19.333 6.667h-6.667v-2.667c0-0.733 0.6-1.333 1.333-1.333h4c0.733 0 1.333 0.6 1.333 1.333v2.667z"></path>
</symbol>
<symbol id="icon-python" viewBox="0 0 32 32">
<path d="M20.026 2.973c-1.21-0.197-2.605-0.31-4.027-0.31s-2.816 0.113-4.177 0.33l0.15-0.020c-1.093 0.173-1.893 1.107-1.893 2.2v4.907h-4.907c-1.093 0-2.026 0.8-2.2 1.893-0.197 1.21-0.31 2.605-0.31 4.027s0.113 2.816 0.33 4.176l-0.020-0.15c0.173 1.093 1.107 1.893 2.2 1.893h2.24c0.002 0 0.005 0 0.007 0 0.364 0 0.66-0.296 0.66-0.66 0-0.002 0-0.005-0-0.007v0-2.293c0-2.733 2.226-4.96 4.96-4.96h5.92c0.533 0 0.96-0.427 0.96-0.96v-4.293c-0-0.002-0-0.004-0-0.007 0-0.364 0.296-0.66 0.66-0.66 0.002 0 0.005 0 0.007 0h0.666c0.002 0 0.005 0 0.007 0 0.364 0 0.66-0.295 0.66-0.66 0-0.002 0-0.005-0-0.007v0-2.24c0-1.093-0.8-2.026-1.893-2.2zM13.773 7.44c-0.546 0-1.066-0.52-1.066-1.067 0-0.56 0.52-1.080 1.066-1.080 0.267 0 0.56 0.12 0.747 0.307 0.2 0.186 0.333 0.493 0.333 0.773 0 0.547-0.52 1.067-1.080 1.067z"></path>
<path d="M29.026 11.973c-0.174-1.094-1.107-1.893-2.2-1.893h-4.24c-0.002-0-0.004-0-0.007-0-0.364 0-0.66 0.296-0.66 0.66 0 0.002 0 0.005 0 0.007v-0 2.293c0 1.627-1.32 2.96-2.96 2.96h-5.92c-1.64 0-2.96 1.32-2.96 2.96v7.867c0 1.093 0.8 2.026 1.893 2.2 1.21 0.197 2.605 0.31 4.027 0.31s2.816-0.113 4.177-0.33l-0.15 0.020c1.093-0.174 1.893-1.107 1.893-2.2v-4.907h4.907c1.093 0 2.026-0.8 2.2-1.893 0.197-1.21 0.31-2.605 0.31-4.027s-0.113-2.816-0.33-4.176l0.020 0.15zM18.227 26.706c-0.547 0-1.080-0.52-1.080-1.080s0.52-1.080 1.080-1.080c0.253 0 0.56 0.12 0.747 0.294 0.2 0.186 0.334 0.506 0.334 0.773-0.014 0.573-0.534 1.093-1.080 1.093z"></path>
</symbol>
<symbol id="icon-iost" viewBox="0 0 32 32">
<path d="M26.014 8.56l-8.667-5.093c-0.387-0.232-0.854-0.37-1.353-0.37s-0.966 0.138-1.365 0.377l0.012-0.007-8.666 5.093c-0.814 0.48-1.32 1.36-1.32 2.293v10.28c0.003 0.973 0.527 1.824 1.308 2.287l0.012 0.007 8.666 5.093c0.387 0.232 0.854 0.37 1.353 0.37s0.966-0.137 1.365-0.377l-0.012 0.007 8.667-5.093c0.813-0.48 1.32-1.36 1.32-2.294v-10.28c0-0.933-0.507-1.813-1.32-2.293zM23.186 20.853l-6.666 4c-0.16 0.093-0.334 0.147-0.52 0.147s-0.36-0.053-0.52-0.147l-6.666-4c-0.48-0.28-0.627-0.893-0.347-1.373s0.893-0.627 1.373-0.347l6.146 3.694 4.72-2.84-2.48-1.493-0.866 0.866c-0.2 0.2-0.454 0.294-0.706 0.294-0.001 0-0.003 0-0.004 0-0.275 0-0.524-0.112-0.703-0.293l-0-0c-0.179-0.182-0.29-0.431-0.29-0.707s0.111-0.525 0.29-0.707l0.507-0.506-2.4-1.44-0.694 0.693c-0.2 0.2-0.454 0.294-0.707 0.294-0.001 0-0.002 0-0.004 0-0.275 0-0.524-0.112-0.703-0.293l-0-0c-0.179-0.182-0.29-0.431-0.29-0.707s0.111-0.525 0.29-0.707l0.347-0.347-3.48-2.093c-0.29-0.176-0.48-0.49-0.48-0.848 0-0.002 0-0.004 0-0.006v0c0-0.347 0.187-0.68 0.48-0.853l6.667-4c0.32-0.187 0.72-0.187 1.026 0l6.667 4c0.48 0.28 0.627 0.893 0.346 1.373-0.18 0.293-0.499 0.485-0.863 0.485-0.188 0-0.364-0.052-0.515-0.141l0.005 0.003-6.146-3.693-4.72 2.84 2.48 1.493 0.867-0.867c0.182-0.179 0.431-0.29 0.707-0.29s0.525 0.111 0.707 0.29l-0-0c0.179 0.182 0.29 0.431 0.29 0.707s-0.111 0.525-0.29 0.707l-0.506 0.506 2.4 1.44 0.693-0.693c0.182-0.179 0.431-0.29 0.707-0.29s0.525 0.111 0.707 0.29l-0-0c0.179 0.182 0.29 0.431 0.29 0.706s-0.111 0.525-0.29 0.707l0-0-0.346 0.347 3.48 2.093c0.306 0.186 0.48 0.507 0.48 0.854s-0.174 0.68-0.467 0.853z"></path>
</symbol>
<symbol id="icon-driving" viewBox="0 0 32 32">
<path d="M16 25c-0.547 0-1-0.453-1-1v-1.333c0-0.547 0.453-1 1-1s1 0.453 1 1v1.333c0 0.547-0.453 1-1 1zM16 30.333c-0.547 0-1-0.453-1-1v-1.333c0-0.547 0.453-1 1-1s1 0.453 1 1v1.333c0 0.547-0.453 1-1 1zM2.667 30.333c-0.080 0-0.16-0.013-0.24-0.027-0.533-0.133-0.867-0.68-0.733-1.213l1.333-5.333c0.111-0.441 0.505-0.762 0.973-0.762 0.554 0 1.002 0.449 1.002 1.003 0 0.085-0.011 0.168-0.031 0.247l0.002-0.007-1.333 5.333c-0.12 0.453-0.52 0.76-0.973 0.76zM29.004 30.004c-0.453 0-0.853-0.307-0.973-0.76l-1.333-5.333c-0.133-0.533 0.187-1.080 0.733-1.213 0.533-0.133 1.080 0.187 1.213 0.733l1.333 5.333c0.133 0.533-0.187 1.080-0.733 1.213-0.080 0.013-0.16 0.027-0.24 0.027zM25.52 7.067c0 0.4-0.333 0.72-0.72 0.72h-17.427c-0.4 0-0.72-0.333-0.72-0.72 0-0.4 0.333-0.72 0.72-0.72h0.987l0.373-1.747c0.347-1.707 1.067-3.267 3.947-3.267h6.787c2.88 0 3.613 1.56 3.96 3.253l0.373 1.747h0.987c0.4 0 0.733 0.333 0.733 0.733zM25.933 12.533c-0.147-1.6-0.573-3.293-3.68-3.293h-12.347c-3.107 0-3.52 1.707-3.68 3.293l-0.547 5.893c-0.067 0.733 0.173 1.467 0.68 2.027 0.52 0.56 1.24 0.88 2.013 0.88h1.813c1.573 0 1.867-0.893 2.067-1.493l0.2-0.587c0.227-0.667 0.28-0.827 1.147-0.827h4.96c0.867 0 0.893 0.093 1.147 0.827l0.2 0.587c0.187 0.6 0.493 1.493 2.053 1.493h1.813c0.76 0 1.493-0.32 2.013-0.88 0.507-0.547 0.747-1.293 0.68-2.027l-0.533-5.893zM13.173 14.56h-2.893c-0.4 0-0.72-0.333-0.72-0.72s0.333-0.72 0.72-0.72h2.907c0.4 0 0.72 0.333 0.72 0.72s-0.333 0.72-0.733 0.72zM21.88 14.56h-2.907c-0.4 0-0.72-0.333-0.72-0.72s0.333-0.72 0.72-0.72h2.907c0.4 0 0.72 0.333 0.72 0.72s-0.32 0.72-0.72 0.72z"></path>
</symbol>
<symbol id="icon-bus" viewBox="0 0 32 32">
<path d="M5.333 18v7.2c0 2.267 1.853 4.133 4.133 4.133h13.067c2.267 0 4.133-1.853 4.133-4.133v-7.2c0-0.373-0.293-0.667-0.667-0.667h-20c-0.373 0-0.667 0.293-0.667 0.667zM11.84 24.507c-0.307 0.32-0.733 0.493-1.173 0.493-0.107 0-0.213-0.013-0.32-0.027-0.107-0.027-0.213-0.053-0.32-0.107-0.108-0.046-0.2-0.095-0.287-0.151l0.007 0.004c-0.093-0.067-0.187-0.133-0.253-0.213-0.32-0.307-0.493-0.733-0.493-1.173s0.173-0.867 0.493-1.173c0.067-0.080 0.16-0.147 0.253-0.213 0.080-0.053 0.187-0.107 0.28-0.147 0.107-0.053 0.213-0.080 0.32-0.107 0.533-0.107 1.107 0.080 1.493 0.467 0.32 0.307 0.493 0.733 0.493 1.173s-0.173 0.867-0.493 1.173zM22.507 24.507c-0.067 0.080-0.16 0.147-0.253 0.213-0.080 0.053-0.187 0.107-0.28 0.147-0.107 0.053-0.213 0.080-0.307 0.107-0.12 0.013-0.227 0.027-0.333 0.027s-0.213-0.013-0.32-0.027c-0.107-0.027-0.213-0.053-0.32-0.107-0.108-0.046-0.2-0.095-0.287-0.151l0.007 0.004c-0.093-0.067-0.187-0.133-0.253-0.213-0.32-0.307-0.493-0.733-0.493-1.173s0.173-0.867 0.493-1.173c0.067-0.080 0.16-0.147 0.253-0.213 0.080-0.053 0.187-0.107 0.28-0.147 0.107-0.053 0.213-0.080 0.32-0.107 0.213-0.040 0.427-0.040 0.653 0 0.093 0.027 0.2 0.053 0.307 0.107 0.093 0.040 0.2 0.093 0.28 0.147 0.093 0.067 0.187 0.133 0.253 0.213 0.32 0.307 0.493 0.733 0.493 1.173s-0.173 0.867-0.493 1.173zM22.533 2.667h-13.067c-2.28 0-4.133 1.853-4.133 4.133v3.2c0 0.373 0.293 0.667 0.667 0.667h20c0.373 0 0.667-0.293 0.667-0.667v-3.2c0-2.28-1.853-4.133-4.133-4.133zM19.333 7.667h-6.667c-0.547 0-1-0.453-1-1s0.453-1 1-1h6.667c0.547 0 1 0.453 1 1s-0.453 1-1 1zM26 16h-20c-0.373 0-0.667-0.293-0.667-0.667v-2.667c0-0.373 0.293-0.667 0.667-0.667h20c0.373 0 0.667 0.293 0.667 0.667v2.667c0 0.373-0.293 0.667-0.667 0.667z"></path>
</symbol>
<symbol id="icon-arrow" viewBox="0 0 32 32">
<path d="M31.723 15.577l-9.907-9.693c-0.167-0.128-0.379-0.205-0.609-0.205-0.273 0-0.521 0.109-0.702 0.286l0-0c-0.178 0.175-0.289 0.419-0.289 0.688 0 0.226 0.078 0.434 0.208 0.598l-0.002-0.002 8.211 8.048h-27.64c-0.001 0-0.002 0-0.003 0-0.272 0-0.519 0.108-0.699 0.284l0-0c-0.179 0.175-0.289 0.419-0.289 0.688s0.111 0.513 0.289 0.688l0 0c0.187 0.183 0.439 0.284 0.701 0.284h27.627l-8.196 8.032c-0.216 0.166-0.36 0.418-0.381 0.703l-0 0.003c-0.001 0.019-0.002 0.042-0.002 0.064 0 0.269 0.111 0.511 0.29 0.685l0 0c0.179 0.176 0.425 0.285 0.697 0.285 0.024 0 0.047-0.001 0.070-0.002l-0.003 0c0.292-0.019 0.548-0.16 0.72-0.371l0.001-0.002 9.907-9.711c0.171-0.174 0.276-0.412 0.276-0.675s-0.105-0.501-0.276-0.675l0 0z"></path>
</symbol>
<symbol id="icon-Burger-menu" viewBox="0 0 32 32">
<path d="M4.592 9.334c-0.326 0-0.592-0.598-0.592-1.334s0.266-1.334 0.592-1.334h9.482c0.327 0 0.592 0.598 0.592 1.334s-0.265 1.334-0.592 1.334h-9.482zM5.334 17.334c-0.737 0-1.334-0.597-1.334-1.334s0.597-1.334 1.334-1.334h21.333c0.737 0 1.334 0.597 1.334 1.334s-0.597 1.334-1.334 1.334h-21.333zM17.143 24c0 0.631 0.256 1.142 0.571 1.142h9.142c0.316 0 0.572-0.512 0.572-1.142 0-0.632-0.256-1.143-0.572-1.143h-9.142c-0.316 0-0.571 0.512-0.571 1.143z"></path>
</symbol>
<symbol id="icon-close" viewBox="0 0 32 32">
<path d="M32 3.223l-3.223-3.223-12.777 12.777-12.777-12.777-3.223 3.223 12.777 12.777-12.777 12.777 3.223 3.223 12.777-12.777 12.777 12.777 3.223-3.223-12.777-12.777 12.777-12.777z"></path>
</symbol>
<symbol id="icon-twitter" viewBox="0 0 32 32">
      <path d="M32 6.078c-1.1.493-2.376.857-3.713 1.028l-.068.007a6.556 6.556 0 0 0 2.873-3.579l.013-.046a12.88 12.88 0 0 1-4.076 1.573l-.084.014A6.558 6.558 0 0 0 15.6 9.557v.004c0 .52.043 1.021.152 1.496-5.454-.266-10.28-2.88-13.522-6.861a6.524 6.524 0 0 0-.902 3.313v.001a6.57 6.57 0 0 0 2.914 5.451 6.453 6.453 0 0 1-2.994-.823l.033.017v.072a6.592 6.592 0 0 0 5.213 6.44l.043.008a6.403 6.403 0 0 1-1.662.215h-.061.003c-.419 0-.843-.024-1.242-.112.85 2.598 3.261 4.509 6.13 4.57a13.093 13.093 0 0 1-8.122 2.8H1.57h.001-.062c-.531 0-1.055-.034-1.569-.099l.061.006c2.826 1.846 6.287 2.944 10.004 2.944h.063-.003c12.072 0 18.672-10 18.672-18.669 0-.288-.01-.57-.024-.848a13.203 13.203 0 0 0 3.258-3.355l.03-.047z"/>
    </symbol>
    <symbol id="icon-instagram" viewBox="0 0 32 32">
      <path d="M31.968 9.408c-.074-1.701-.349-2.869-.742-3.882a7.839 7.839 0 0 0-1.85-2.837l-.001-.001A7.906 7.906 0 0 0 26.597.861l-.054-.018C25.524.449 24.362.176 22.661.101 20.949.019 20.405 0 16.059 0c-4.344 0-4.888.019-6.595.094-1.699.074-2.869.349-3.88.742a7.847 7.847 0 0 0-2.839 1.85l-.001.001A7.9 7.9 0 0 0 .919 5.465l-.018.054C.506 6.538.232 7.7.157 9.401c-.082 1.712-.101 2.256-.101 6.602 0 4.344.019 4.888.094 6.595.075 1.701.35 2.869.744 3.882a7.915 7.915 0 0 0 1.849 2.837l.001.001c.8.813 1.77 1.443 2.832 1.843 1.019.395 2.182.67 3.882.744 1.707.075 2.251.094 6.595.094 4.346 0 4.89-.019 6.595-.094 1.701-.074 2.869-.349 3.882-.742a8.237 8.237 0 0 0 4.664-4.628l.019-.055c.394-1.019.669-2.182.744-3.882.075-1.707.093-2.251.093-6.595s-.006-4.888-.08-6.595zm-2.88 13.066c-.07 1.563-.333 2.406-.55 2.97a5.341 5.341 0 0 1-3.004 3.024l-.036.012c-.56.219-1.411.482-2.968.55-1.688.075-2.194.094-6.464.094-4.269 0-4.782-.019-6.464-.094-1.563-.069-2.406-.331-2.97-.55a4.953 4.953 0 0 1-1.836-1.192l-.001-.001a4.978 4.978 0 0 1-1.184-1.803L3.6 25.45c-.218-.563-.48-1.413-.549-2.97-.075-1.688-.094-2.195-.094-6.464 0-4.27.019-4.784.094-6.464.069-1.563.331-2.406.549-2.97a4.897 4.897 0 0 1 1.198-1.837l.002-.002a4.972 4.972 0 0 1 1.806-1.182l.034-.011c.56-.219 1.411-.48 2.968-.55 1.688-.074 2.195-.093 6.464-.093 4.275 0 4.782.019 6.464.093 1.563.069 2.406.331 2.97.55a4.91 4.91 0 0 1 1.837 1.194c.531.52.938 1.144 1.195 1.84.218.56.48 1.411.549 2.968.075 1.688.094 2.194.094 6.464 0 4.269-.019 4.768-.094 6.458z"/>
      <path d="M16.059 7.782a8.223 8.223 0 0 0-8.219 8.221 8.223 8.223 0 0 0 16.442.008v-.009a8.223 8.223 0 0 0-8.221-8.221zm0 13.552a5.333 5.333 0 0 1 .001-10.666h.001a5.334 5.334 0 1 1 0 10.668zM26.525 7.458a1.92 1.92 0 0 1-3.84 0 1.92 1.92 0 0 1 3.84 0z"/>
    </symbol>
    <symbol id="icon-dribble" viewBox="0 0 32 32">
      <path d="M32 16c0 1.084-0.11 2.166-0.327 3.22-0.211 1.030-0.523 2.041-0.933 3.007-0.4 0.949-0.896 1.864-1.476 2.717-0.571 0.848-1.229 1.643-1.952 2.368-0.724 0.722-1.521 1.379-2.367 1.953-0.855 0.577-1.77 1.073-2.718 1.475-0.967 0.408-1.978 0.72-3.006 0.931-1.055 0.217-2.139 0.328-3.223 0.328s-2.169-0.111-3.222-0.328c-1.029-0.211-2.041-0.523-3.006-0.931-0.948-0.402-1.864-0.898-2.719-1.475-0.846-0.574-1.643-1.231-2.366-1.953-0.723-0.725-1.381-1.52-1.953-2.368-0.577-0.853-1.074-1.768-1.475-2.717-0.409-0.966-0.723-1.977-0.934-3.007-0.214-1.055-0.323-2.137-0.323-3.22s0.109-2.169 0.324-3.221c0.212-1.030 0.525-2.042 0.934-3.007 0.402-0.95 0.898-1.866 1.475-2.719 0.572-0.848 1.23-1.642 1.953-2.368 0.723-0.722 1.52-1.377 2.366-1.951 0.855-0.579 1.77-1.075 2.719-1.478 0.966-0.409 1.977-0.722 3.006-0.931 1.053-0.216 2.138-0.325 3.222-0.325s2.168 0.109 3.223 0.325c1.027 0.209 2.039 0.523 3.006 0.931 0.948 0.403 1.863 0.899 2.718 1.478 0.846 0.573 1.643 1.229 2.367 1.951 0.723 0.726 1.381 1.52 1.952 2.368 0.58 0.853 1.076 1.769 1.476 2.719 0.409 0.965 0.722 1.977 0.933 3.007 0.216 1.052 0.327 2.137 0.327 3.221zM10.169 3.641c-3.81 1.799-6.654 5.31-7.541 9.541 0.36 0.003 6.054 0.075 12.615-1.668-2.365-4.202-4.892-7.63-5.074-7.873zM16.375 13.619c-7.035 2.106-13.787 1.955-14.029 1.945-0.004 0.147-0.011 0.289-0.011 0.436 0 3.51 1.324 6.71 3.501 9.13-0.005-0.007 3.735-6.641 11.108-9.025 0.178-0.059 0.359-0.113 0.539-0.164-0.343-0.777-0.717-1.555-1.109-2.322zM25.023 5.745c-2.406-2.121-5.564-3.408-9.024-3.408-1.11 0-2.188 0.134-3.22 0.383 0.205 0.275 2.771 3.68 5.108 7.97 5.156-1.933 7.102-4.895 7.136-4.945zM18.415 18.205c-0.030 0.010-0.061 0.019-0.091 0.030-8.062 2.81-10.695 8.474-10.723 8.536 2.32 1.804 5.229 2.892 8.398 2.892 1.892 0 3.695-0.385 5.334-1.083-0.202-1.194-0.996-5.378-2.919-10.375zM23.635 27.331c3.068-2.070 5.247-5.358 5.855-9.166-0.281-0.091-4.104-1.301-8.515-0.594 1.792 4.925 2.52 8.936 2.66 9.759zM18.939 12.727c0.317 0.652 0.624 1.315 0.908 1.981 0.101 0.239 0.199 0.473 0.295 0.708 4.694-0.591 9.319 0.403 9.516 0.444-0.031-3.239-1.19-6.212-3.107-8.539-0.026 0.037-2.217 3.203-7.612 5.406z"></path>
    </symbol>
    <symbol id="icon-youtube" viewBox="0 0 32 32">
      <path d="M28.502 2.836c1.377 0.46 2.461 1.815 2.829 3.536 0.669 3.119 0.669 9.628 0.669 9.628s0 6.508-0.669 9.628c-0.368 1.721-1.452 3.076-2.829 3.536-2.495 0.836-12.502 0.836-12.502 0.836s-10.007 0-12.502-0.836c-1.377-0.46-2.461-1.815-2.829-3.536-0.669-3.12-0.669-9.628-0.669-9.628s0-6.508 0.669-9.628c0.368-1.721 1.452-3.076 2.829-3.536 2.495-0.836 12.502-0.836 12.502-0.836s10.007 0 12.502 0.836zM13 10.522v12.174l8-6.087-8-6.087z"></path>
    </symbol>
    <symbol id="icon-person-black" viewBox="0 0 32 32">
<path d="M16 16c2.946 0 5.333-2.388 5.333-5.333s-2.388-5.333-5.333-5.333v0c-2.946 0-5.333 2.388-5.333 5.333s2.388 5.333 5.333 5.333v0zM16 18.667c-3.561 0-10.667 1.787-10.667 5.333v1.333c0 0.732 0.599 1.333 1.333 1.333h18.667c0.732 0 1.333-0.601 1.333-1.333v-1.333c0-3.547-7.108-5.333-10.667-5.333z"></path>
</symbol>
<symbol id="icon-phone-black" viewBox="0 0 32 32">
<path d="M24.882 19.774l-3.268-0.373c-0.090-0.011-0.194-0.018-0.3-0.018-0.707 0-1.347 0.287-1.81 0.75l-2.368 2.368c-3.669-1.894-6.585-4.81-8.427-8.372l-0.051-0.108 2.382-2.377c0.463-0.463 0.75-1.103 0.75-1.81 0-0.106-0.006-0.21-0.019-0.312l0.001 0.012-0.373-3.243c-0.155-1.287-1.24-2.276-2.557-2.276-0.001 0-0.002 0-0.003 0h-2.226c-1.454 0-2.663 1.209-2.574 2.661 0.683 10.987 9.47 19.762 20.444 20.444 1.452 0.089 2.663-1.12 2.663-2.574v-2.226c0-0.004 0-0.008 0-0.012 0-1.308-0.985-2.386-2.253-2.532l-0.012-0.001z"></path>
</symbol>
<symbol id="icon-email-black" viewBox="0 0 32 32">
<path d="M26.667 5.333h-21.333c-1.467 0-2.652 1.2-2.652 2.667l-0.014 16c0 1.467 1.2 2.667 2.667 2.667h21.333c1.467 0 2.667-1.2 2.667-2.667v-16c0-1.467-1.2-2.667-2.667-2.667zM26.133 11.001l-9.426 5.892c-0.201 0.126-0.446 0.2-0.708 0.2s-0.506-0.075-0.713-0.204l0.006 0.003-9.426-5.892c-0.336-0.201-0.557-0.562-0.557-0.975 0-0.625 0.507-1.132 1.132-1.132 0.233 0 0.449 0.070 0.629 0.19l-0.004-0.003 8.933 5.586 8.933-5.588c0.176-0.118 0.392-0.188 0.624-0.188 0.625 0 1.132 0.507 1.132 1.132 0 0.413-0.221 0.775-0.552 0.972l-0.005 0.003z"></path>
</symbol>
</defs>
</svg>
